<svg class="icon" viewBox="0 0 1024 1024" xmlns="http://www.w3.org/2000/svg" width="200" height="200"><defs><style/></defs><path d="M749.6 106.4C683.2 41.6 596.8 6.4 505.6 8 319.2 12 168 165.6 168 352v80c0 182.4 88 352 234.4 454.4C451.2 920 485.6 936 512 936c16.8 0 44.8-6.4 116.8-59.2 142.4-104 227.2-272 227.2-449.6v-69.6c0-93.6-38.4-184.8-106.4-251.2z" data-spm-anchor-id="a313x.7781069.0.i2" class="selected"/><path d="M912 992c0-220.8-179.2-400-400-400S112 771.2 112 992v24h800v-24z"/><path d="M912 1016c-13.6 0-24-10.4-24-24 0-207.2-168.8-376-376-376S136 784.8 136 992c0 13.6-10.4 24-24 24s-24-10.4-24-24c0-233.6 190.4-424 424-424s424 190.4 424 424c0 13.6-10.4 24-24 24z" data-spm-anchor-id="a313x.7781069.0.i3" class="selected"/><path d="M232 392a280 280 0 1 0 560 0 280 280 0 1 0-560 0z"/><path d="M232 392a280 280 0 1 0 560 0 280 280 0 1 0-560 0z"/><path d="M208 504c-44 0-80-36-80-80s36-80 80-80h56v160h-56zm608-160c44 0 80 36 80 80s-36 80-80 80h-48V344h48z"/><path d="M352 392a160 160 0 1 0 320 0 160 160 0 1 0-320 0z" data-spm-anchor-id="a313x.7781069.0.i0"/><path d="M432 392a80 80 0 1 0 160 0 80 80 0 1 0-160 0z"/><path d="M416 336a40 40 0 1 0 80 0 40 40 0 1 0-80 0z"/><path d="M816 320c-3.2 0-5.6.8-8 1.6-4.8-19.2-11.2-38.4-19.2-56.8l3.2-.8v-27.2C737.6 138.4 632.8 72 512 72c-28 0-54.4 3.2-80 10.4-44 11.2-84.8 32-119.2 60-56 44-96 107.2-112.8 178.4-53.6 4-96 48.8-96 104 0 57.6 46.4 104 104 104h32c50.4 99.2 152.8 168 272 168s221.6-68.8 272-168h32c57.6 0 104-46.4 104-104S873.6 320 816 320zM208 480c-31.2 0-56-24.8-56-56s24.8-56 56-56h.8c-.8 8-.8 16-.8 24 0 30.4 4.8 60 12.8 88H208zm304 168c-140.8 0-256-115.2-256-256 0-13.6.8-27.2 3.2-40 56.8-20 106.4-59.2 137.6-112 80 62.4 188 88 296 54.4l49.6-15.2C758.4 313.6 768 352 768 392c0 140.8-115.2 256-256 256zm304-168h-12.8c8.8-28 12.8-57.6 12.8-88 0-8-.8-16-.8-24h.8c31.2 0 56 24.8 56 56s-24.8 56-56 56z" data-spm-anchor-id="a313x.7781069.0.i1" class="selected"/></svg>